
<svg viewBox="0 0 77 71" fill="none" xmlns="http://www.w3.org/2000/svg">
  <mask id="a" style="mask-type:luminance" maskUnits="userSpaceOnUse" x="18" y="0" width="42" height="53">
    <path d="M18.23.297h41.04V52.3H18.23V.297Z" fill="#fff"/>
  </mask>
  <g mask="url(#a)">
    <mask id="b" style="mask-type:luminance" maskUnits="userSpaceOnUse" x="18" y="0" width="42" height="53">
      <path d="M55.957 15.176c-1.055 2.488-2.309 4.48-3.762 5.972-1.453 1.493-3.254 2.625-5.37 3.403-2.122.773-4.74 1.3-7.852 1.57v3.203c1.793.43 3.074.996 3.851 1.692a4.553 4.553 0 0 1 1.461 2.558c.2 1.004.29 2.547.29 4.598v.11h-11.67V23.565c0-2.062.098-3.593.285-4.597a4.475 4.475 0 0 1 1.465-2.559c.785-.695 2.059-1.262 3.848-1.691v-3.203c-3.113-.27-5.73-.797-7.848-1.57-2.12-.778-3.922-1.91-5.37-3.403-1.454-1.492-2.72-3.484-3.774-5.969h-3.203v51.684h40.863V15.176h-3.214Z" fill="#fff"/>
    </mask>
    <g mask="url(#b)">
      <mask id="c" style="mask-type:luminance" maskUnits="userSpaceOnUse" x="18" y="0" width="42" height="53">
        <path d="M18 0h42v53H18V0Z" fill="#fff"/>
      </mask>
      <g mask="url(#c)">
        <mask id="d" style="mask-type:luminance" maskUnits="userSpaceOnUse" x="18" y="0" width="42" height="53">
          <path d="M18.23.469h40.98V52.28H18.23V.469Z" fill="#fff"/>
        </mask>
        <g mask="url(#d)">
          <mask id="e" style="mask-type:luminance" maskUnits="userSpaceOnUse" x="18" y="0" width="42" height="53">
            <path d="M55.957 15.176c-1.055 2.488-2.309 4.48-3.762 5.972-1.453 1.493-3.254 2.625-5.37 3.403-2.122.773-4.74 1.3-7.852 1.57v3.203c1.793.43 3.074.996 3.851 1.692a4.553 4.553 0 0 1 1.461 2.558c.2 1.004.29 2.547.29 4.598v.11h-11.67V23.565c0-2.062.098-3.593.285-4.597a4.475 4.475 0 0 1 1.465-2.559c.785-.695 2.059-1.262 3.848-1.691v-3.203c-3.113-.27-5.73-.797-7.848-1.57-2.12-.778-3.922-1.91-5.37-3.403-1.454-1.491-2.72-3.483-3.774-5.968h-3.202v51.684h40.863V15.176h-3.215Z" fill="#fff"/>
          </mask>
          <g mask="url(#e)">
            <path d="M-85.235-66.68h252.72v207.36h-252.72V-66.68Z" fill="#8B171A"/>
          </g>
        </g>
      </g>
    </g>
  </g>
  <mask id="f" style="mask-type:luminance" maskUnits="userSpaceOnUse" x="0" y="57" width="63" height="14">
    <path d="M0 57.625h62.715V71H0V57.625Z" fill="#fff"/>
  </mask>
  <g mask="url(#f)">
    <mask id="g" style="mask-type:luminance" maskUnits="userSpaceOnUse" x="0" y="57" width="63" height="14">
      <path d="M60.621 63.898H59.13c-.516 0-.926-.148-1.203-.437-.278-.29-.426-.688-.426-1.184 0-.468.148-.828.438-1.105.289-.277.675-.406 1.164-.406.484 0 .843.136 1.12.418.282.277.41.656.41 1.132l-.012 1.582Zm0 3.422c0 .477-.137.868-.426 1.145s-.656.418-1.136.418c-.485 0-.864-.14-1.141-.418-.281-.278-.418-.65-.418-1.113 0-.5.137-.895.426-1.176.289-.278.687-.426 1.203-.426h1.492v1.57Zm.797-8.507c-.207.218-.438.332-.707.332a1.51 1.51 0 0 1-.488-.102 3.91 3.91 0 0 0-1.203-.18c-.715 0-1.332.14-1.84.41a2.787 2.787 0 0 0-1.164 1.145c-.27.484-.399 1.05-.399 1.7 0 .628.219 1.202.54 1.632H6.977v-1.621c0-.668-.141-1.266-.426-1.774a2.956 2.956 0 0 0-1.215-1.183c-.527-.277-1.125-.418-1.82-.418-.696 0-1.305.14-1.832.418-.515.27-.943.68-1.235 1.183-.297.508-.426 1.106-.426 1.774v6.683h39.844c.488 0 .848.05 1.086.149.238.102.418.289.559.559.136.27.246.707.328 1.293h.617c.059-.727.168-1.305.328-1.723.156-.418.375-.754.664-1.004.29-.246.707-.465 1.246-.645v-.61H2.102v-4.534c0-.457.128-.817.378-1.086.25-.266.598-.406 1.036-.406.437 0 .765.14 1.015.406.246.27.375.637.375 1.086v3.46h51.23l-.09.122c-.288.476-.437 1.055-.437 1.71 0 .966.309 1.73.914 2.298.606.566 1.461.855 2.559.855 1.102 0 1.957-.29 2.566-.855.606-.567.903-1.344.903-2.317v-9.89h-.645c-.12.539-.277.914-.488 1.133Z" fill="#fff"/>
    </mask>
    <g mask="url(#g)">
      <mask id="h" style="mask-type:luminance" maskUnits="userSpaceOnUse" x="0" y="57" width="63" height="14">
        <path d="M0 57h63v14H0V57Z" fill="#fff"/>
      </mask>
      <g mask="url(#h)">
        <mask id="i" style="mask-type:luminance" maskUnits="userSpaceOnUse" x="0" y="57" width="63" height="14">
          <path d="M0 57.625h62.555v13.281H0V57.625Z" fill="#fff"/>
        </mask>
        <g mask="url(#i)">
          <mask id="j" style="mask-type:luminance" maskUnits="userSpaceOnUse" x="0" y="57" width="63" height="14">
            <path d="M60.621 63.898H59.13c-.516 0-.926-.148-1.203-.437-.278-.29-.426-.688-.426-1.184 0-.468.148-.828.438-1.105.289-.277.675-.406 1.164-.406.484 0 .843.136 1.12.418.282.277.41.656.41 1.132l-.012 1.582Zm0 3.422c0 .477-.137.867-.426 1.145-.289.277-.656.418-1.136.418-.485 0-.864-.14-1.141-.418-.281-.277-.418-.65-.418-1.113 0-.5.137-.895.426-1.176.289-.278.687-.426 1.203-.426h1.492v1.57Zm.797-8.508c-.207.22-.438.333-.707.333a1.51 1.51 0 0 1-.488-.102 3.91 3.91 0 0 0-1.203-.18c-.715 0-1.333.14-1.84.41a2.787 2.787 0 0 0-1.164 1.145c-.27.484-.399 1.05-.399 1.7 0 .628.219 1.202.54 1.632H6.976v-1.621c0-.668-.141-1.266-.426-1.774a2.956 2.956 0 0 0-1.215-1.183c-.527-.277-1.125-.418-1.82-.418-.696 0-1.305.14-1.832.418-.515.27-.943.68-1.234 1.183-.297.508-.426 1.106-.426 1.775v6.684h39.844c.488 0 .848.05 1.086.148.238.1.418.289.559.559.136.27.246.707.328 1.293h.617c.059-.727.168-1.305.328-1.723.156-.418.375-.754.664-1.004.29-.246.707-.465 1.246-.645v-.61H2.102v-4.535c0-.457.128-.817.378-1.086.25-.266.598-.406 1.036-.406.437 0 .765.14 1.015.406.246.27.375.637.375 1.086v3.46h51.23l-.09.122c-.288.476-.437 1.055-.437 1.71 0 .966.309 1.73.914 2.298.606.566 1.461.855 2.559.855 1.102 0 1.957-.29 2.566-.855.606-.567.903-1.344.903-2.317v-9.89h-.645c-.12.539-.277.914-.488 1.132Z" fill="#fff"/>
          </mask>
          <g mask="url(#j)">
            <path d="M-85.235-66.68h252.72v207.36h-252.72V-66.68Z" fill="#8B171A"/>
          </g>
        </g>
      </g>
    </g>
  </g>
  <mask id="k" style="mask-type:luminance" maskUnits="userSpaceOnUse" x="64" y="53" width="13" height="13">
    <path d="M64 53.55h12.496v12.22H64V53.55Z" fill="#fff"/>
  </mask>
  <g mask="url(#k)">
    <mask id="l" style="mask-type:luminance" maskUnits="userSpaceOnUse" x="64" y="53" width="13" height="13">
      <path d="M75.746 57.46c-.172.54-.39.946-.656 1.243-.27.3-.617.508-1.047.66-.426.15-1.016.258-1.75.317v.625c.586.082 1.016.191 1.293.332.277.136.469.316.559.554.09.24.136.598.136 1.075v1.504h-8.02v-5.313c0-.477.052-.836.141-1.074.09-.238.278-.418.559-.559.277-.14.707-.25 1.293-.328v-.617c-.738-.059-1.324-.168-1.75-.316a2.574 2.574 0 0 1-1.047-.66c-.27-.286-.488-.704-.656-1.243h-.617v12.098h12.168v-8.285l-.606-.013Z" fill="#fff"/>
    </mask>
    <g mask="url(#l)">
      <mask id="m" style="mask-type:luminance" maskUnits="userSpaceOnUse" x="64" y="53" width="13" height="14">
        <path d="M64 53h13v13H64V53Z" fill="#fff"/>
      </mask>
      <g mask="url(#m)">
        <mask id="n" style="mask-type:luminance" maskUnits="userSpaceOnUse" x="64" y="53" width="13" height="13">
          <path d="M64 53.55h12.402v12.22H64V53.55Z" fill="#fff"/>
        </mask>
        <g mask="url(#n)">
          <mask id="o" style="mask-type:luminance" maskUnits="userSpaceOnUse" x="64" y="53" width="13" height="13">
            <path d="M75.746 57.46c-.172.54-.39.946-.656 1.243-.27.3-.617.508-1.047.66-.426.15-1.016.258-1.75.317v.625c.586.082 1.016.191 1.293.332.277.136.469.316.559.554.09.24.136.598.136 1.075v1.504h-8.02v-5.313c0-.477.051-.836.141-1.074.09-.238.278-.418.559-.559.277-.14.707-.25 1.293-.328v-.616c-.738-.059-1.324-.168-1.75-.317a2.573 2.573 0 0 1-1.047-.66c-.27-.286-.488-.703-.656-1.243h-.617v12.098h12.168v-8.285l-.606-.013Z" fill="#fff"/>
          </mask>
          <g mask="url(#o)">
            <path d="M-85.235-66.68h252.72v207.36h-252.72V-66.68Z" fill="#8B171A"/>
          </g>
        </g>
      </g>
    </g>
  </g>
</svg>